<?xml version="1.0" encoding="UTF-8"?>
<!DOCTYPE svg PUBLIC "-//W3C//DTD SVG 1.1//EN" "http://www.w3.org/Graphics/SVG/1.1/DTD/svg11.dtd">
<!--Creator: CorelDRAW X6-->
<svg xmlns="http://www.w3.org/2000/svg" xmlns:xlink="http://www.w3.org/1999/xlink" width="2.69444in" height="2.69444in" style="shape-rendering:geometricPrecision;text-rendering:geometricPrecision;image-rendering:optimizeQuality;fill-rule:evenodd;clip-rule:evenodd" version="1.1" viewBox="0 0 2694 2694" xml:space="preserve">
    <defs>
        <style type="text/css">
            <![CDATA[
    .fil1 {fill:#FFFFFF}
   ]]>
        </style>
    </defs>
    <g id="Layer_x0020_1">
        <metadata id="CorelCorpID_0Corel-Layer"/>
        <path d="M82 1137l0 176c0,0 454,0 514,0 60,0 136,-55 136,-147 0,-37 14,-61 -29,-109l-66 -78c-38,-35 5,-35 36,-35 18,0 217,0 217,0l0 369 172 0 0 -369 232 0 0 -158 -751 0c-91,0 -136,88 -134,133 3,46 11,103 87,172 69,63 -34,46 -45,46 -53,0 -370,0 -370,0z" class="fil1"/>
        <path d="M1675 786l-278 0 -156 527 173 0 28 -74 183 0 27 74 170 0 -148 -527zm-193 327l60 -193 56 193 -116 0z" class="fil1"/>
        <path d="M2371 1137c-67,0 -67,-25 -67,-25 57,0 108,-83 108,-169 0,-85 -83,-158 -150,-158 -67,0 -373,0 -373,0l0 527 190 0 0 -176c0,0 81,95 123,134 42,39 46,42 103,42 57,0 298,0 298,0l0 -176c0,0 -164,0 -231,0zm-172 -123c-48,0 -120,0 -120,0l0 -95c0,0 82,0 120,0 55,0 65,95 0,95z" class="fil1"/>
        <polygon points="82,1380 276,1380 326,1556 371,1380 575,1380 628,1556 681,1380 849,1380 695,1907 540,1907 472,1657 396,1907 238,1907 " class="fil1"/>
        <path d="M1248 1383l-278 0 -156 527 173 0 28 -74 183 0 27 74 170 0 -148 -527zm-193 327l60 -193 56 193 -116 0z" class="fil1"/>
        <path d="M2374 1538c-32,0 -66,4 -28,39l66 78c43,49 42,69 42,106 0,91 -90,147 -150,147l-415 3c-57,0 -61,-4 -103,-42 -42,-39 -123,-134 -123,-134l0 176 -190 0 0 -527c0,0 307,0 373,0 67,0 150,73 150,158 0,85 -51,169 -108,169 0,0 25,25 67,25 42,0 205,0 205,0 10,0 114,17 45,-46 -76,-69 -84,-127 -87,-172 -3,-46 37,-137 128,-137l355 0 0 158 -228 0zm-591 73c-48,0 -120,0 -120,0l0 -95c0,0 82,0 120,0 55,0 65,95 0,95z" class="fil1"/>
    </g>
</svg>
